<?xml version="1.0" encoding="UTF-8"?>
<svg version="1.1" xmlns="http://www.w3.org/2000/svg" width="159" height="42">
<path d="M0 0 C2.64 0 5.28 0 8 0 C8.34933594 0.85464844 8.69867188 1.70929687 9.05859375 2.58984375 C9.51363281 3.69457031 9.96867187 4.79929687 10.4375 5.9375 C11.11619141 7.59072266 11.11619141 7.59072266 11.80859375 9.27734375 C12.74424608 11.86568916 12.74424608 11.86568916 14 13 C15.65 8.71 17.3 4.42 19 0 C21.97 0 24.94 0 28 0 C28 8.25 28 16.5 28 25 C25.69 25 23.38 25 21 25 C20.67 22.03 20.34 19.06 20 16 C18.02 20.455 18.02 20.455 16 25 C14.35 25 12.7 25 11 25 C9.68 22.03 8.36 19.06 7 16 C6.67 18.97 6.34 21.94 6 25 C4.02 25 2.04 25 0 25 C0 16.75 0 8.5 0 0 Z " fill="#00CBFE" transform="translate(74,9)"/>
<path d="M0 0 C2.206875 -0.061875 4.41375 -0.12375 6.6875 -0.1875 C8.54955078 -0.23970703 8.54955078 -0.23970703 10.44921875 -0.29296875 C15.18825632 0.09804095 17.75236152 1.53725144 20.8125 5.125 C22.48348384 9.17053981 22.81202898 12.68941627 22 17 C19.65853221 21.54803619 16.77507399 23.0899704 12 25 C8.04 25 4.08 25 0 25 C0 16.75 0 8.5 0 0 Z M7 6 C7 6.99 7 7.98 7 9 C7.66 9 8.32 9 9 9 C9 8.34 9 7.68 9 7 C9.66 7 10.32 7 11 7 C11 8.65 11 10.3 11 12 C11.66 12 12.32 12 13 12 C13 12.99 13 13.98 13 15 C11.68 15.33 10.36 15.66 9 16 C9 14.68 9 13.36 9 12 C8.34 12 7.68 12 7 12 C7 13.98 7 15.96 7 18 C9.3431213 17.74438677 11.67843403 17.40729228 14 17 C15.39935013 14.20129973 15.25265405 12.09501208 15 9 C13.93654948 7.01970318 13.93654948 7.01970318 12 6 C9.37429296 5.74930087 9.37429296 5.74930087 7 6 Z " fill="#32CA32" transform="translate(3,9)"/>
<path d="M0 0 C2.04922635 2.17342189 2.74906398 3.26209717 3.0625 6.1875 C-0.86958708 6.2552946 -4.42928476 6.27220254 -8.3125 5.625 C-10.90839775 4.92787734 -10.90839775 4.92787734 -12.9375 6.1875 C-13.83716936 8.96148054 -14.10803714 10.62937844 -13.25 13.4375 C-12.06362 15.32663484 -12.06362 15.32663484 -10 16 C-7.74007287 16.34436809 -7.74007287 16.34436809 -4.9375 15.1875 C-4.6075 14.5275 -4.2775 13.8675 -3.9375 13.1875 C-6.2475 13.1875 -8.5575 13.1875 -10.9375 13.1875 C-10.9375 11.5375 -10.9375 9.8875 -10.9375 8.1875 C-6.3175 8.1875 -1.6975 8.1875 3.0625 8.1875 C3.55051743 15.38575708 3.55051743 15.38575708 1.3125 19.0625 C-2.21717422 22.39608121 -3.89890837 23.08699113 -8.8125 23.5625 C-13.15667437 23.43306464 -15.64677549 22.09558213 -18.9375 19.1875 C-22.06774374 14.84554901 -22.318289 11.42620922 -21.5078125 6.3046875 C-20.64941545 3.11803543 -19.39069199 1.37548205 -16.9375 -0.8125 C-11.09295434 -3.73477283 -5.48844277 -3.38648596 0 0 Z " fill="#31CB31" transform="translate(57.9375,10.8125)"/>
<path d="M0 0 C2.31 0 4.62 0 7 0 C7.33 5.61 7.66 11.22 8 17 C9.65 17 11.3 17 13 17 C13.33 11.39 13.66 5.78 14 0 C16.31 0 18.62 0 21 0 C21.10822792 3.06345144 21.18741479 6.1230601 21.25 9.1875 C21.30027344 10.48397461 21.30027344 10.48397461 21.3515625 11.80664062 C21.41612328 16.01923169 21.37995841 18.36592411 19.171875 22.05078125 C16.31319767 24.61639274 14.43856773 24.9675135 10.625 25.25 C6.73600564 24.98179349 5.01621538 24.4129723 2 22 C0.24384901 19.12823941 -0.24309961 17.01697261 -0.1953125 13.671875 C-0.18886719 12.87265625 -0.18242187 12.0734375 -0.17578125 11.25 C-0.15902344 10.425 -0.14226562 9.6 -0.125 8.75 C-0.11597656 7.90953125 -0.10695312 7.0690625 -0.09765625 6.203125 C-0.07415817 4.13529396 -0.03828908 2.06761005 0 0 Z " fill="#00CBFE" transform="translate(135,9)"/>
<path d="M0 0 C5.94 0 11.88 0 18 0 C17.06401924 6.55186535 16.69920527 8.10102179 12.9375 12.9375 C12.20402344 13.89527344 11.47054687 14.85304688 10.71484375 15.83984375 C9.86599609 16.90912109 9.86599609 16.90912109 9 18 C11.97 18.33 14.94 18.66 18 19 C18.042721 20.66611905 18.04063832 22.33382885 18 24 C17 25 17 25 13.18359375 25.09765625 C11.60153318 25.09098089 10.01948841 25.07901875 8.4375 25.0625 C7.63119141 25.05798828 6.82488281 25.05347656 5.99414062 25.04882812 C3.99606244 25.03700518 1.99802217 25.01906914 0 25 C-0.47274258 19.14242396 0.59119248 16.30287296 4 11.5625 C4.7425 10.51191406 5.485 9.46132813 6.25 8.37890625 C6.8275 7.59386719 7.405 6.80882812 8 6 C5.36 6 2.72 6 0 6 C0 4.02 0 2.04 0 0 Z " fill="#00CBFE" transform="translate(115,9)"/>
<path d="M0 0 C2.31 0 4.62 0 7 0 C7 8.25 7 16.5 7 25 C4.69 25 2.38 25 0 25 C0 16.75 0 8.5 0 0 Z " fill="#00CAFD" transform="translate(105,9)"/>
<path d="M0 0 C2.31 0 4.62 0 7 0 C7.02886984 3.97915159 7.04675406 7.95827653 7.0625 11.9375 C7.07087891 13.07380859 7.07925781 14.21011719 7.08789062 15.38085938 C7.09111328 16.46044922 7.09433594 17.54003906 7.09765625 18.65234375 C7.10289307 19.65257568 7.10812988 20.65280762 7.11352539 21.68334961 C7 24 7 24 6 25 C4.02 25 2.04 25 0 25 C0 16.75 0 8.5 0 0 Z " fill="#2BD22B" transform="translate(64,9)"/>
<path d="M0 0 C2.31 0 4.62 0 7 0 C7 8.25 7 16.5 7 25 C5.02 25 3.04 25 1 25 C0 24 0 24 -0.11352539 21.68334961 C-0.10828857 20.68311768 -0.10305176 19.68288574 -0.09765625 18.65234375 C-0.09443359 17.57275391 -0.09121094 16.49316406 -0.08789062 15.38085938 C-0.07951172 14.24455078 -0.07113281 13.10824219 -0.0625 11.9375 C-0.05798828 10.79732422 -0.05347656 9.65714844 -0.04882812 8.48242188 C-0.03699747 5.65489649 -0.0205141 2.8274736 0 0 Z " fill="#32CB32" transform="translate(27,9)"/>
</svg>
